# xmcd
#
# Track frame offsets:
#	150
#	24765
#	50692
#	69221
#	87078
#	98401
#	117442
#	172692
#	210657
#	241594
#	244419
#	252737
#
# Disc length: 3746 seconds
#
# Revision: 0
# Processed by: cddbd v1.5.2PL0 Copyright (c) Steve Scherf et al.
# Submitted via: EasyCDDAExtractor 9.0.0.1
#
DISCID=900ea00c
DTITLE=Frank Zappa - Boston Music Hall Boston 24-11-76 Disc 1
DYEAR=1976
DGENRE=Progressive Rock
TTITLE0=Show Intro
TTITLE1=Stinkfoot
TTITLE2=Poodle Rap
TTITLE3=Dirty Love
TTITLE4=Wind Up In A Gas Station
TTITLE5=Tryin' To Grow A Chin
TTITLE6=The Torture Never Stops
TTITLE7=City Of Tiny Lights
TTITLE8=You Didn't Try To Call Me
TTITLE9=FZ Rap
TTITLE10=Mars Needs Yo Mama
TTITLE11=Titties 'N Beer
EXTD=
EXTT0=
EXTT1=
EXTT2=
EXTT3=
EXTT4=
EXTT5=
EXTT6=
EXTT7=
EXTT8=
EXTT9=
EXTT10=
EXTT11=
PLAYORDER=
